<?xml version="1.0" standalone="no"?>
<!DOCTYPE svg PUBLIC "-//W3C//DTD SVG 20010904//EN"
 "http://www.w3.org/TR/2001/REC-SVG-20010904/DTD/svg10.dtd">
<svg version="1.0" xmlns="http://www.w3.org/2000/svg"
 width="1024.000000pt" height="1024.000000pt" viewBox="0 0 1024.000000 1024.000000"
 preserveAspectRatio="xMidYMid meet">
<metadata>
Created by potrace 1.11, written by Peter Selinger 2001-2013
</metadata>
<g transform="translate(0.000000,1024.000000) scale(0.100000,-0.100000)"
fill="#000000" stroke="none">
<path d="M0 7490 c0 -2612 1 -2750 18 -2752 9 -1 39 -2 66 -3 76 -2 67 -21 -9
-21 -41 0 -61 3 -53 9 10 6 9 8 -2 4 -13 -3 -15 -57 -18 -396 -1 -263 1 -390
8 -386 5 3 10 1 10 -6 0 -8 7 -6 19 5 13 12 21 14 26 6 3 -5 11 -8 16 -5 5 4
9 0 9 -7 0 -11 2 -10 9 0 6 11 10 9 14 -7 4 -17 2 -19 -13 -11 -26 14 -53 13
-44 -2 5 -7 3 -8 -7 -2 -19 12 -33 12 -41 -1 -4 -5 -8 -177 -8 -382 0 -288 3
-372 13 -376 9 -4 9 -6 0 -6 -10 -1 -13 -86 -13 -389 l0 -387 1031 0 c797 0
1036 -3 1048 -12 13 -10 10 -12 -24 -13 -22 0 -493 -1 -1047 -1 l-1008 0 0
-382 0 -382 1521 0 c1182 0 1526 -3 1538 -12 20 -16 199 -14 -1566 -14 l-1492
0 -1 -383 0 -383 5120 0 5120 0 0 382 0 383 -1531 0 c-842 1 -1533 3 -1536 6
-3 3 4 9 15 13 12 5 703 8 1536 8 l1516 0 0 382 0 382 -1041 0 c-573 0 -1044
2 -1047 5 -18 19 152 22 1066 22 l1022 -1 0 777 c0 428 -3 777 -7 777 -26 -4
-35 3 -16 11 l23 9 0 380 0 380 -135 1 c-74 1 -143 1 -152 1 -85 -2 -106 -1
-110 3 -3 2 -17 1 -33 -4 -16 -5 -32 -4 -38 2 -6 6 -12 6 -16 0 -3 -5 -22 -6
-43 -2 -21 3 -50 3 -65 -1 -16 -4 -30 -3 -34 2 -3 5 -9 7 -13 4 -8 -4 -163 -7
-323 -6 -65 1 -78 4 -78 17 0 10 6 14 15 11 8 -4 17 -2 21 4 4 7 10 6 18 0 7
-6 15 -9 18 -6 7 7 368 8 375 1 4 -3 11 -2 17 3 6 5 29 6 52 2 22 -4 50 -4 62
0 12 5 24 4 28 -2 4 -6 10 -7 17 0 7 5 30 6 55 1 24 -4 42 -3 42 2 0 5 8 4 19
-1 10 -6 21 -8 24 -5 3 3 66 5 141 5 l136 0 0 380 0 379 -181 -1 c-99 -1 -183
1 -186 5 -3 3 -11 2 -17 -3 -6 -5 -29 -6 -52 -2 -22 4 -50 4 -62 0 -12 -5 -24
-4 -28 2 -3 6 -10 7 -17 1 -7 -6 -29 -7 -50 -3 -21 3 -115 4 -209 1 -93 -3
-172 -1 -175 3 -3 4 -11 3 -18 -3 -9 -8 -15 -8 -20 0 -3 6 -11 8 -16 5 -5 -4
-9 1 -9 9 0 14 18 16 113 17 250 1 360 0 364 -5 2 -2 17 -1 33 4 16 5 32 4 38
-2 6 -6 12 -6 16 0 3 5 22 6 43 2 21 -3 50 -3 65 1 16 4 30 3 34 -2 3 -5 12
-6 21 -1 8 5 32 6 54 2 21 -4 40 -5 43 -3 2 3 52 5 110 5 l106 -1 0 386 c0
338 -2 384 -15 379 -8 -3 -15 0 -15 7 0 8 -4 6 -10 -3 -9 -13 -10 -13 -10 0 0
13 -1 13 -10 0 -8 -12 -10 -10 -10 8 0 16 4 21 13 15 20 -12 37 -12 37 0 0 7
5 5 10 -3 14 -22 13 735 -1 762 -8 15 -8 19 0 14 8 -5 11 98 9 381 l-3 388
-1032 0 c-811 0 -1035 3 -1045 13 -9 9 3 12 63 12 40 0 512 1 1047 1 l972 0 0
382 0 382 -1226 0 c-674 0 -1230 3 -1236 6 -7 4 -6 9 1 13 6 4 562 7 1236 7
l1225 1 0 383 0 383 -1202 1 c-1416 0 -1271 -1 -1263 11 5 8 86 12 190 11 11
-1 40 0 65 0 25 0 50 1 55 1 178 0 515 -1 530 -2 11 -1 27 -1 35 -1 123 0 988
0 995 -1 6 0 30 1 55 1 25 0 54 1 65 0 20 0 342 -1 360 -1 6 0 34 1 63 3 l52
2 0 383 0 384 -5120 0 -5120 0 0 -2750z m7864 394 c29 -11 17 -19 -26 -18 -64
2 -70 3 -63 14 7 11 64 14 89 4z m-44 -799 c0 -2 -9 -3 -19 -2 -11 0 -18 5
-15 9 4 6 34 0 34 -7z m61 -3 c-7 -2 -18 1 -23 6 -8 8 -4 9 13 5 13 -4 18 -8
10 -11z m129 3 c0 -2 -9 -3 -19 -2 -11 0 -18 5 -15 9 4 6 34 0 34 -7z m70 0
c7 -9 8 -15 2 -15 -5 0 -12 7 -16 15 -3 8 -4 15 -2 15 2 0 9 -7 16 -15z m41
-3 c-7 -2 -18 1 -23 6 -8 8 -4 9 13 5 13 -4 18 -8 10 -11z m129 3 c0 -2 -9 -3
-19 -2 -11 0 -18 5 -15 9 4 6 34 0 34 -7z m80 0 c0 -12 -19 -12 -23 0 -4 9 -1
12 9 8 7 -3 14 -7 14 -8z m42 8 c-6 -2 -10 -9 -7 -14 4 -5 -1 -6 -10 -2 -13 5
-14 7 -3 14 7 5 18 8 23 8 6 0 4 -3 -3 -6z m94 -12 c2 -7 0 -7 -3 -1 -3 7 -9
8 -17 1 -9 -8 -13 -7 -13 3 0 17 30 14 33 -3z m428 10 c4 -5 -3 -7 -14 -4 -23
6 -26 13 -6 13 8 0 17 -4 20 -9z m61 -1 c3 -6 -1 -7 -9 -4 -18 7 -21 14 -7 14
6 0 13 -4 16 -10z m100 -8 c-3 -3 -11 0 -18 7 -9 10 -8 11 6 5 10 -3 15 -9 12
-12z m160 0 c-3 -3 -11 0 -18 7 -9 10 -8 11 6 5 10 -3 15 -9 12 -12z m160 0
c-3 -3 -11 0 -18 7 -9 10 -8 11 6 5 10 -3 15 -9 12 -12z m160 0 c-3 -3 -11 0
-18 7 -9 10 -8 11 6 5 10 -3 15 -9 12 -12z m79 10 c3 -5 -1 -9 -9 -9 -8 0 -12
4 -9 9 3 4 7 8 9 8 2 0 6 -4 9 -8z m76 -7 c0 -2 -9 -3 -19 -2 -11 0 -18 5 -15
9 4 6 34 0 34 -7z m70 0 c7 -9 8 -15 2 -15 -5 0 -12 7 -16 15 -3 8 -4 15 -2
15 2 0 9 -7 16 -15z m41 -3 c-7 -2 -18 1 -23 6 -8 8 -4 9 13 5 13 -4 18 -8 10
-11z m129 3 c0 -2 -9 -3 -19 -2 -11 0 -18 5 -15 9 4 6 34 0 34 -7z m70 0 c7
-9 8 -15 2 -15 -5 0 -12 7 -16 15 -3 8 -4 15 -2 15 2 0 9 -7 16 -15z m41 -3
c-7 -2 -18 1 -23 6 -8 8 -4 9 13 5 13 -4 18 -8 10 -11z m129 3 c0 -2 -9 -3
-19 -2 -11 0 -18 5 -15 9 4 6 34 0 34 -7z m-1323 -1 c-3 -3 -12 -4 -19 -1 -8
3 -5 6 6 6 11 1 17 -2 13 -5z m-929 -762 c9 9 12 9 12 1 0 -13 18 -12 39 1 9
6 12 5 8 -1 -5 -7 6 -11 28 -11 21 0 32 4 29 10 -4 6 2 5 14 -1 15 -8 23 -8
28 0 4 8 9 7 15 -2 7 -12 12 -12 30 -1 11 8 18 9 15 4 -3 -6 9 -10 29 -10 21
0 32 4 29 10 -4 6 1 6 13 -1 14 -7 23 -7 31 1 9 9 12 9 12 1 0 -13 18 -12 39
1 9 6 12 5 8 -1 -5 -7 6 -11 28 -11 21 0 32 4 29 10 -4 6 2 5 14 -1 15 -8 23
-8 28 0 4 8 9 7 15 -2 7 -12 12 -12 30 -1 11 8 18 9 15 4 -3 -6 9 -10 29 -10
21 0 32 4 29 10 -4 6 1 6 13 -1 14 -7 23 -7 31 1 9 9 12 9 12 1 0 -13 18 -12
39 1 9 6 12 5 8 -1 -5 -7 6 -11 28 -11 21 0 32 4 29 10 -4 6 3 5 15 -1 12 -7
27 -11 34 -10 24 3 34 -1 34 -15 0 -11 -5 -12 -16 -6 -9 4 -46 7 -83 6 -38 -1
-68 3 -68 8 0 4 -8 2 -17 -5 -11 -10 -14 -10 -9 -1 8 13 -6 17 -18 5 -10 -10
-130 -10 -137 1 -4 5 -13 5 -20 0 -18 -11 -119 -11 -119 0 0 5 -8 2 -17 -5
-11 -10 -14 -10 -9 -1 8 13 -6 17 -18 5 -10 -10 -130 -10 -137 1 -4 5 -13 5
-20 0 -18 -11 -119 -11 -119 0 0 5 -8 2 -17 -5 -11 -10 -14 -10 -9 -1 8 13 -6
17 -18 5 -11 -11 -76 -10 -76 2 0 5 -5 3 -10 -5 -8 -13 -10 -12 -10 2 0 15 6
17 36 12 26 -4 34 -2 29 6 -6 9 -2 9 12 1 14 -7 23 -7 31 1z m1250 -9 c34 0
62 4 62 9 0 5 6 3 14 -4 18 -17 12 -25 -16 -23 -13 1 -28 -2 -35 -7 -7 -5 -14
-5 -17 1 -4 5 -15 8 -26 6 -11 -2 -20 1 -20 6 0 6 -5 7 -10 4 -6 -4 -8 -11 -5
-16 3 -5 -1 -6 -8 -3 -8 3 -17 14 -20 25 -4 15 -2 17 6 11 7 -5 40 -9 75 -9z
m207 -3 c10 0 13 5 9 12 -5 7 -3 8 7 2 20 -12 39 -14 39 -3 0 6 8 5 20 -1 15
-8 20 -8 20 1 0 8 4 8 13 1 16 -14 57 -12 57 3 0 7 3 7 8 -1 4 -5 32 -10 62
-10 30 1 56 -3 58 -8 1 -5 -29 -10 -68 -10 -38 -1 -70 3 -70 8 0 5 -7 2 -17
-5 -13 -11 -17 -11 -20 -1 -3 6 -9 12 -14 12 -6 0 -7 -6 -3 -12 5 -9 2 -9 -9
1 -9 7 -17 9 -17 4 0 -5 -7 -10 -15 -10 -8 0 -15 5 -15 10 0 6 -9 2 -19 -7
-13 -12 -21 -14 -26 -6 -3 5 -11 8 -16 5 -5 -4 -9 0 -9 7 0 11 -2 10 -9 0 -6
-11 -10 -9 -14 7 -4 17 -2 19 13 11 10 -6 26 -10 35 -10z m353 4 c6 -1 12 3
12 9 0 8 4 7 9 -2 5 -7 13 -11 18 -8 5 3 15 2 23 -4 13 -7 13 -9 0 -10 -8 0
-25 -2 -37 -3 -13 -2 -23 2 -23 8 0 6 -5 4 -10 -4 -9 -13 -10 -13 -10 0 0 13
-1 13 -10 0 -8 -12 -10 -10 -10 8 0 16 4 21 13 15 6 -4 18 -8 25 -9z m127 -4
c10 0 13 5 9 12 -5 7 -3 8 7 2 20 -12 39 -14 39 -3 0 6 8 5 20 -1 15 -8 20 -8
20 1 0 8 4 8 13 1 16 -14 57 -12 57 3 0 7 3 7 8 -1 4 -5 32 -10 62 -10 30 1
56 -3 58 -8 1 -5 -29 -10 -68 -10 -38 -1 -70 3 -70 8 0 5 -7 2 -17 -5 -13 -11
-17 -11 -20 -1 -3 6 -9 12 -14 12 -6 0 -7 -6 -3 -12 5 -9 2 -9 -9 1 -9 7 -17
9 -17 4 0 -5 -7 -10 -15 -10 -8 0 -15 5 -15 10 0 6 -9 2 -19 -7 -13 -12 -21
-14 -26 -6 -3 5 -11 8 -16 5 -5 -4 -9 0 -9 7 0 11 -2 10 -9 0 -6 -11 -10 -9
-14 7 -4 17 -2 19 13 11 10 -6 26 -10 35 -10z m-2058 -5 c0 -8 -4 -12 -9 -9
-4 3 -8 9 -8 15 0 5 4 9 8 9 5 0 9 -7 9 -15z m1033 0 c0 -6 -9 -11 -20 -11
-11 0 -20 5 -20 11 0 5 -5 3 -10 -5 -8 -13 -10 -13 -10 1 0 12 8 16 30 15 17
0 30 -5 30 -11z m239 -6 c-16 -10 -23 -4 -14 10 3 6 11 8 17 5 6 -4 5 -9 -3
-15z m246 11 c6 -1 1 -5 -10 -10 -29 -12 -35 -12 -35 4 0 8 8 13 18 11 9 -2
22 -4 27 -5z m-1452 -780 c24 3 55 3 70 -1 15 -4 29 -4 31 0 4 6 27 6 101 1
17 -1 35 -1 40 -1 6 1 118 1 250 1 132 -1 247 -1 255 -1 74 2 103 1 107 -3 3
-2 18 0 34 4 18 5 31 5 35 -2 4 -6 10 -6 16 0 5 5 26 6 46 2 20 -3 49 -3 64 1
16 4 30 4 33 -1 2 -4 16 -5 30 -2 18 3 25 0 25 -11 0 -16 -77 -29 -87 -14 -2
4 -10 4 -16 -2 -7 -5 -29 -6 -53 -2 -22 4 -50 4 -62 0 -12 -5 -24 -4 -28 2 -4
6 -10 7 -17 0 -7 -5 -30 -6 -54 -1 -25 4 -43 3 -43 -2 0 -5 -8 -4 -19 1 -10 6
-21 8 -24 5 -6 -7 -588 -6 -595 0 -2 3 -13 1 -23 -4 -12 -7 -20 -7 -24 0 -4 6
-11 8 -16 4 -6 -3 -38 -6 -72 -6 -89 1 -87 1 -87 16 0 16 21 27 33 16 4 -4 27
-4 50 0z m-7314 -796 c139 0 226 -4 228 -10 2 -6 -48 -10 -137 -10 -90 0 -140
4 -140 11 0 5 -5 3 -10 -5 -9 -13 -11 -13 -20 0 -8 12 -10 12 -10 1 0 -8 -7
-11 -19 -8 -10 2 -26 0 -35 -5 -10 -6 -16 -5 -16 2 0 7 -8 9 -20 5 -13 -4 -20
-2 -21 7 0 7 -4 4 -9 -7 -5 -11 -9 -14 -9 -7 -1 7 -5 10 -11 7 -6 -3 -10 4
-10 17 0 13 4 18 8 13 4 -7 90 -11 231 -11z m425 -5 c-4 9 -2 12 6 9 24 -8 21
-24 -5 -26 -20 -1 -25 3 -25 20 0 21 0 21 16 2 8 -10 12 -13 8 -5z m51 1 c15
-17 16 -20 3 -20 -9 0 -18 9 -21 20 -3 11 -4 20 -3 20 2 0 11 -9 21 -20z m804
4 c139 0 226 -4 228 -10 2 -6 -48 -10 -137 -10 -90 0 -140 4 -140 11 0 5 -5 3
-10 -5 -9 -13 -11 -13 -20 0 -8 12 -10 12 -10 1 0 -8 -7 -11 -19 -8 -10 2 -26
0 -35 -5 -10 -6 -16 -5 -16 2 0 7 -8 9 -20 5 -13 -4 -20 -2 -21 7 0 7 -4 4 -9
-7 -5 -11 -9 -14 -9 -7 -1 7 -5 10 -11 7 -6 -3 -10 4 -10 17 0 13 4 18 8 13 4
-7 90 -11 231 -11z m640 0 c139 0 226 -4 228 -10 2 -6 -48 -10 -137 -10 -90 0
-140 4 -140 11 0 5 -5 3 -10 -5 -9 -13 -11 -13 -20 0 -8 12 -10 12 -10 1 0 -8
-7 -11 -19 -8 -10 2 -26 0 -35 -5 -10 -6 -16 -5 -16 2 0 7 -8 9 -20 5 -13 -4
-20 -2 -21 7 0 7 -4 4 -9 -7 -5 -11 -9 -14 -9 -7 -1 7 -5 10 -11 7 -6 -3 -10
4 -10 17 0 13 4 18 8 13 4 -7 90 -11 231 -11z m640 0 c139 0 226 -4 228 -10 2
-6 -48 -10 -137 -10 -90 0 -140 4 -140 11 0 5 -5 3 -10 -5 -9 -13 -11 -13 -20
0 -8 12 -10 12 -10 1 0 -8 -7 -11 -19 -8 -10 2 -26 0 -35 -5 -10 -6 -16 -5
-16 2 0 7 -8 9 -20 5 -13 -4 -20 -2 -21 7 0 7 -4 4 -9 -7 -5 -11 -9 -14 -9 -7
-1 7 -5 10 -11 7 -6 -3 -10 4 -10 17 0 13 4 18 8 13 4 -7 90 -11 231 -11z
m640 0 c139 0 226 -4 228 -10 2 -6 -48 -10 -137 -10 -90 0 -140 4 -140 11 0 5
-5 3 -10 -5 -9 -13 -11 -13 -20 0 -8 12 -10 12 -10 1 0 -8 -7 -11 -19 -8 -10
2 -26 0 -35 -5 -10 -6 -16 -5 -16 2 0 7 -8 9 -20 5 -13 -4 -20 -2 -21 7 0 7
-4 4 -9 -7 -5 -11 -9 -14 -9 -7 -1 7 -5 10 -11 7 -6 -3 -10 4 -10 17 0 13 4
18 8 13 4 -7 90 -11 231 -11z m258 -4 c1 -11 -2 -20 -8 -20 -10 0 -12 23 -2
33 9 9 9 10 10 -13z m1278 5 c318 1 485 -3 494 -10 12 -8 13 -6 8 8 -6 15 -4
16 13 7 11 -6 25 -8 31 -5 5 4 16 1 24 -5 12 -10 15 -9 15 4 0 10 4 15 10 11
5 -3 7 -12 4 -20 -6 -16 -44 -16 -44 0 0 7 -3 7 -8 0 -9 -14 -75 -13 -84 0 -5
6 -8 5 -8 -4 0 -8 -7 -11 -19 -8 -10 2 -26 0 -35 -5 -10 -6 -16 -5 -16 2 0 7
-8 9 -20 5 -13 -4 -20 -2 -21 7 0 7 -4 4 -9 -7 -5 -11 -9 -15 -9 -10 -1 6 -37
10 -91 10 -56 -1 -90 3 -90 10 0 5 -4 4 -9 -4 -5 -7 -15 -11 -22 -9 -8 3 -22
1 -31 -4 -12 -6 -18 -5 -18 2 0 7 -8 9 -20 5 -13 -4 -20 -2 -21 7 0 7 -4 4 -9
-7 -5 -11 -9 -15 -9 -10 -1 7 -58 10 -156 10 -103 -1 -155 2 -155 9 0 6 -5 4
-10 -4 -9 -13 -11 -13 -20 0 -8 12 -10 12 -10 1 0 -8 -7 -11 -19 -8 -10 2 -26
0 -35 -5 -10 -6 -16 -5 -16 2 0 7 -8 9 -20 5 -13 -4 -20 -2 -21 7 0 7 -4 4 -9
-7 -5 -11 -9 -14 -9 -7 -1 7 -5 10 -11 7 -6 -3 -10 4 -10 17 0 13 4 18 8 13 5
-8 163 -11 487 -10z m701 -7 c26 -3 31 -1 26 11 -5 13 -3 14 9 5 8 -6 27 -14
42 -16 22 -4 27 -2 22 10 -4 12 -3 13 10 2 8 -7 15 -16 15 -19 0 -4 -49 -7
-110 -8 -101 0 -132 6 -96 20 7 3 19 0 25 -6 9 -9 10 -7 5 8 -6 16 -5 18 7 9
8 -6 28 -13 45 -16z m259 12 c-3 -5 9 -8 30 -6 19 1 35 -1 35 -6 0 -4 5 -8 11
-8 5 0 8 3 6 8 -7 10 395 8 412 -2 11 -7 13 -5 8 8 -6 14 -3 15 13 6 11 -6 25
-8 31 -5 5 4 16 1 24 -5 12 -10 15 -9 15 4 0 10 4 15 10 11 5 -3 7 -12 4 -20
-6 -16 -44 -16 -44 0 0 7 -3 7 -8 0 -10 -14 -212 -15 -212 -1 0 6 -5 4 -10 -4
-9 -13 -11 -13 -20 0 -8 12 -10 12 -10 1 0 -8 -7 -11 -19 -8 -10 2 -26 0 -35
-5 -10 -6 -16 -5 -16 2 0 7 -8 9 -20 5 -13 -4 -20 -2 -21 7 0 7 -4 4 -9 -7 -5
-11 -9 -14 -9 -8 -1 15 -42 13 -53 -2 -5 -6 -8 -6 -8 2 0 8 -12 11 -37 7 -23
-3 -40 0 -45 8 -6 10 -8 10 -8 1 0 -7 -7 -13 -15 -13 -15 0 -21 21 -8 33 10
10 15 8 8 -3z m701 -12 c26 -3 31 -1 26 11 -5 13 -3 14 9 5 16 -13 866 -13
887 -1 6 4 14 3 17 -3 4 -7 11 -8 18 -1 7 5 30 6 55 1 24 -4 42 -3 42 2 0 5 8
4 19 -1 10 -6 21 -8 23 -5 7 7 639 7 646 0 3 -3 10 -2 16 3 6 5 29 6 52 2 22
-4 50 -4 62 0 12 5 24 4 28 -2 4 -6 11 -6 19 1 8 7 19 9 25 5 5 -3 33 -6 60
-7 33 0 50 -4 47 -11 -5 -16 -46 -24 -87 -17 -19 3 -46 3 -60 0 -14 -4 -30 -3
-37 2 -6 5 -14 5 -17 0 -3 -5 -23 -6 -43 -2 -21 3 -50 3 -65 -1 -16 -4 -30 -3
-34 2 -3 5 -12 6 -21 1 -8 -5 -32 -6 -54 -2 -21 4 -40 5 -43 3 -2 -3 -114 -4
-248 -3 -133 0 -250 1 -258 1 -74 -2 -103 -1 -107 3 -3 2 -17 0 -33 -4 -16 -4
-31 -6 -34 -3 -3 3 -30 6 -61 5 -33 0 -55 4 -55 11 0 6 -6 3 -13 -8 -9 -12
-16 -14 -21 -7 -4 6 -13 9 -21 5 -9 -3 -15 1 -15 8 0 12 -2 12 -9 0 -5 -7 -15
-11 -22 -9 -8 3 -22 1 -31 -4 -12 -6 -18 -5 -18 2 0 7 -8 9 -20 5 -13 -4 -20
-2 -21 7 0 7 -4 4 -9 -7 -5 -11 -9 -15 -9 -10 -1 6 -37 10 -91 10 -56 -1 -90
3 -90 10 0 5 -4 4 -9 -4 -5 -7 -15 -11 -22 -9 -8 3 -22 1 -31 -4 -12 -6 -18
-5 -18 2 0 7 -8 9 -20 5 -13 -4 -20 -2 -21 7 0 7 -4 4 -9 -7 -5 -11 -9 -15 -9
-10 -1 7 -65 10 -181 9 -163 -1 -206 4 -166 19 7 3 19 0 25 -6 9 -9 10 -7 5 8
-6 16 -5 18 7 9 8 -6 28 -13 45 -16z m-6649 -5 c3 -8 -8 -10 -31 -8 -22 2 -34
-1 -30 -7 4 -6 -1 -6 -13 1 -11 6 -23 7 -27 3 -4 -3 -11 0 -16 8 -7 10 -10 11
-10 3 0 -7 -4 -13 -10 -13 -5 0 -10 6 -10 14 0 17 142 16 147 -1z m640 0 c3
-8 -8 -10 -31 -8 -22 2 -34 -1 -30 -7 4 -6 -1 -6 -13 1 -11 6 -23 7 -27 3 -4
-3 -11 0 -16 8 -7 10 -10 11 -10 3 0 -7 -4 -13 -10 -13 -5 0 -10 6 -10 14 0
17 142 16 147 -1z m480 0 c2 -5 -35 -9 -87 -9 -59 0 -90 4 -90 11 0 14 173 12
177 -2z m160 0 c3 -8 -8 -10 -31 -8 -22 2 -34 -1 -30 -7 4 -6 -1 -6 -13 1 -11
6 -23 7 -27 3 -4 -3 -11 0 -16 8 -7 10 -10 11 -10 3 0 -7 -4 -13 -10 -13 -5 0
-10 6 -10 14 0 17 142 16 147 -1z m640 0 c3 -8 -8 -10 -31 -8 -22 2 -34 -1
-30 -7 4 -6 -1 -6 -13 1 -11 6 -23 7 -27 3 -4 -3 -11 0 -16 8 -7 10 -10 11
-10 3 0 -7 -4 -13 -10 -13 -5 0 -10 6 -10 14 0 17 142 16 147 -1z m640 0 c3
-8 -8 -10 -31 -8 -22 2 -34 -1 -30 -7 4 -6 -1 -6 -13 1 -11 6 -23 7 -27 3 -4
-3 -11 0 -16 8 -7 10 -10 11 -10 3 0 -7 -4 -13 -10 -13 -5 0 -10 6 -10 14 0
17 142 16 147 -1z m640 0 c3 -8 -8 -10 -31 -8 -22 2 -34 -1 -30 -7 4 -6 -1 -6
-13 1 -11 6 -23 7 -27 3 -4 -3 -11 0 -16 8 -7 10 -10 11 -10 3 0 -7 -4 -13
-10 -13 -5 0 -10 6 -10 14 0 17 142 16 147 -1z m1120 1 c2 -6 -50 -10 -137
-10 -90 0 -140 4 -140 11 0 5 -5 3 -10 -5 -9 -13 -11 -13 -20 0 -8 12 -10 12
-10 1 0 -8 -7 -11 -19 -8 -10 2 -26 0 -35 -5 -10 -6 -16 -5 -16 2 0 7 -8 9
-20 5 -13 -4 -20 -2 -21 7 0 7 -4 4 -9 -7 -5 -11 -9 -14 -9 -7 -1 8 -10 11
-26 8 -24 -5 -36 9 -14 16 26 9 483 1 486 -8z m160 -1 c3 -8 -8 -10 -31 -8
-22 2 -34 -1 -30 -7 4 -6 -1 -6 -13 1 -11 6 -23 7 -27 3 -4 -3 -11 0 -16 8 -7
10 -10 11 -10 3 0 -7 -4 -13 -10 -13 -5 0 -10 6 -10 14 0 17 142 16 147 -1z
m-4214 -776 c4 3 7 0 7 -8 0 -11 2 -12 9 -1 6 11 10 9 14 -7 4 -17 2 -19 -13
-11 -26 14 -53 13 -44 -2 5 -7 3 -8 -7 -2 -20 12 -39 14 -39 3 0 -6 -8 -5 -20
1 -15 8 -20 8 -20 -1 0 -8 -4 -8 -13 -1 -16 14 -57 12 -57 -3 0 -7 -3 -7 -8 1
-4 5 -32 10 -62 10 -30 -1 -56 3 -58 8 -1 5 29 10 68 10 38 1 70 -3 70 -8 0
-5 7 -2 17 5 13 11 17 11 20 2 3 -7 9 -13 14 -13 6 0 7 6 3 13 -5 8 -2 8 9 -2
9 -7 17 -9 17 -4 0 5 7 10 15 10 8 0 15 -5 15 -11 0 -6 8 -3 17 7 11 11 21 13
28 7 7 -6 15 -7 18 -3z m480 0 c4 3 7 0 7 -8 0 -11 2 -12 9 -1 6 11 10 9 14
-7 4 -17 2 -19 -13 -11 -26 14 -53 13 -44 -2 5 -7 3 -8 -7 -2 -20 12 -39 14
-39 3 0 -6 -8 -5 -20 1 -15 8 -20 8 -20 -1 0 -8 -4 -8 -13 -1 -16 14 -57 12
-57 -3 0 -7 -3 -7 -8 1 -4 5 -32 10 -62 10 -30 -1 -56 3 -58 8 -1 5 29 10 68
10 38 1 70 -3 70 -8 0 -5 7 -2 17 5 13 11 17 11 20 2 3 -7 9 -13 14 -13 6 0 7
6 3 13 -5 8 -2 8 9 -2 9 -7 17 -9 17 -4 0 5 7 10 15 10 8 0 15 -5 15 -11 0 -6
8 -3 17 7 11 11 21 13 28 7 7 -6 15 -7 18 -3z m800 0 c4 3 7 0 7 -8 0 -11 2
-12 9 -1 6 11 10 9 14 -7 4 -17 2 -19 -13 -11 -26 14 -53 13 -44 -2 5 -7 3 -8
-7 -2 -20 12 -39 14 -39 3 0 -6 -8 -5 -20 1 -15 8 -20 8 -20 -1 0 -8 -4 -8
-13 -1 -16 14 -57 12 -57 -3 0 -7 -3 -7 -8 1 -4 5 -32 10 -62 10 -30 -1 -56 3
-58 8 -1 5 29 10 68 10 38 1 70 -3 70 -8 0 -5 7 -2 17 5 13 11 17 11 20 2 3
-7 9 -13 14 -13 6 0 7 6 3 13 -5 8 -2 8 9 -2 9 -7 17 -9 17 -4 0 5 7 10 15 10
8 0 15 -5 15 -11 0 -6 8 -3 17 7 11 11 21 13 28 7 7 -6 15 -7 18 -3z m480 0
c4 3 7 0 7 -8 0 -11 2 -12 9 -1 6 11 10 9 14 -7 4 -17 2 -19 -13 -11 -26 14
-53 13 -44 -2 5 -7 3 -8 -7 -2 -20 12 -39 14 -39 3 0 -6 -8 -5 -20 1 -15 8
-20 8 -20 -1 0 -8 -4 -8 -13 -1 -16 14 -57 12 -57 -3 0 -7 -3 -7 -8 1 -4 5
-32 10 -62 10 -30 -1 -56 3 -58 8 -1 5 29 10 68 10 38 1 70 -3 70 -8 0 -5 7
-2 17 5 13 11 17 11 20 2 3 -7 9 -13 14 -13 6 0 7 6 3 13 -5 8 -2 8 9 -2 9 -7
17 -9 17 -4 0 5 7 10 15 10 8 0 15 -5 15 -11 0 -6 8 -3 17 7 11 11 21 13 28 7
7 -6 15 -7 18 -3z m320 0 c4 3 7 0 7 -8 0 -11 2 -12 9 -1 6 11 10 9 14 -7 4
-17 2 -19 -13 -11 -26 14 -53 13 -44 -2 5 -7 3 -8 -7 -2 -20 12 -39 14 -39 3
0 -6 -6 -7 -12 -2 -7 4 -21 8 -30 9 -10 1 -25 2 -33 3 -8 0 -15 4 -15 9 0 4
22 7 50 7 27 0 50 -4 50 -10 0 -5 8 -2 17 8 11 11 21 13 28 7 7 -6 15 -7 18
-3z m480 0 c4 3 7 0 7 -8 0 -11 2 -12 9 -1 6 11 10 9 14 -7 4 -17 2 -19 -13
-11 -26 14 -53 13 -44 -2 5 -7 3 -8 -7 -2 -20 12 -39 14 -39 3 0 -6 -8 -5 -20
1 -15 8 -20 8 -20 -1 0 -8 -4 -8 -13 -1 -16 14 -57 12 -57 -3 0 -7 -3 -7 -8 1
-4 5 -32 10 -62 10 -30 -1 -56 3 -58 8 -1 5 29 10 68 10 38 1 70 -3 70 -8 0
-5 7 -2 17 5 13 11 17 11 20 2 3 -7 9 -13 14 -13 6 0 7 6 3 13 -5 8 -2 8 9 -2
9 -7 17 -9 17 -4 0 5 7 10 15 10 8 0 15 -5 15 -11 0 -6 8 -3 17 7 11 11 21 13
28 7 7 -6 15 -7 18 -3z m480 0 c4 3 7 0 7 -8 0 -11 2 -12 9 -1 6 11 10 9 14
-7 4 -17 2 -19 -13 -11 -26 14 -53 13 -44 -2 5 -7 3 -8 -7 -2 -20 12 -39 14
-39 3 0 -6 -8 -5 -20 1 -15 8 -20 8 -20 -1 0 -8 -4 -8 -13 -1 -16 14 -57 12
-57 -3 0 -7 -3 -7 -8 1 -4 5 -32 10 -62 10 -30 -1 -56 3 -58 8 -1 5 29 10 68
10 38 1 70 -3 70 -8 0 -5 7 -2 17 5 13 11 17 11 20 2 3 -7 9 -13 14 -13 6 0 7
6 3 13 -5 8 -2 8 9 -2 9 -7 17 -9 17 -4 0 5 7 10 15 10 8 0 15 -5 15 -11 0 -6
8 -3 17 7 11 11 21 13 28 7 7 -6 15 -7 18 -3z m320 0 c4 3 7 0 7 -8 0 -11 2
-12 9 -1 6 11 10 9 14 -7 4 -17 2 -19 -13 -11 -26 14 -53 13 -44 -2 5 -7 3 -8
-7 -2 -20 12 -39 14 -39 3 0 -6 -6 -7 -12 -2 -7 4 -21 8 -30 9 -10 1 -25 2
-33 3 -8 0 -15 4 -15 9 0 4 22 7 50 7 27 0 50 -4 50 -10 0 -5 8 -2 17 8 11 11
21 13 28 7 7 -6 15 -7 18 -3z m480 0 c4 3 7 0 7 -8 0 -11 2 -12 9 -1 6 11 10
9 14 -7 4 -17 2 -19 -13 -11 -26 14 -53 13 -44 -2 5 -7 3 -8 -7 -2 -20 12 -39
14 -39 3 0 -6 -8 -5 -20 1 -15 8 -20 8 -20 -1 0 -9 -4 -8 -14 0 -16 14 -47 11
-58 -4 -5 -6 -8 -5 -8 3 0 8 -9 11 -26 8 -34 -6 -73 7 -54 19 9 5 15 4 18 -3
2 -7 8 -12 13 -12 6 0 8 3 6 8 -3 4 10 7 29 7 19 0 34 -4 34 -9 0 -5 7 -2 17
5 13 11 17 11 20 2 3 -7 9 -13 14 -13 6 0 7 6 3 13 -5 8 -2 8 9 -2 9 -7 17 -9
17 -4 0 5 7 10 15 10 8 0 15 -5 15 -11 0 -6 8 -3 17 7 11 11 21 13 28 7 7 -6
15 -7 18 -3z m480 0 c4 3 7 0 7 -8 0 -11 2 -12 9 -1 6 11 10 9 14 -7 4 -17 2
-19 -13 -11 -26 14 -53 13 -44 -2 5 -7 3 -8 -7 -2 -20 12 -39 14 -39 3 0 -6
-8 -5 -20 1 -15 8 -20 8 -20 -1 0 -8 -4 -8 -13 -1 -16 14 -57 12 -57 -3 0 -7
-3 -7 -8 1 -4 5 -32 10 -62 10 -30 -1 -56 3 -58 8 -1 5 29 10 68 10 38 1 70
-3 70 -8 0 -5 7 -2 17 5 13 11 17 11 20 2 3 -7 9 -13 14 -13 6 0 7 6 3 13 -5
8 -2 8 9 -2 9 -7 17 -9 17 -4 0 5 7 10 15 10 8 0 15 -5 15 -11 0 -6 8 -3 17 7
11 11 21 13 28 7 7 -6 15 -7 18 -3z m480 0 c4 3 7 0 7 -8 0 -11 2 -12 9 -1 6
11 10 9 14 -7 4 -17 2 -19 -13 -11 -26 14 -53 13 -44 -2 5 -7 3 -8 -7 -2 -20
12 -39 14 -39 3 0 -6 -8 -5 -20 1 -15 8 -20 8 -20 -1 0 -9 -4 -8 -14 0 -16 14
-47 11 -58 -4 -5 -6 -8 -6 -8 1 0 7 -19 10 -47 9 -51 -2 -83 3 -83 14 0 3 34
6 75 6 41 0 75 -4 75 -9 0 -5 7 -2 17 5 13 11 17 11 20 2 3 -7 9 -13 14 -13 6
0 7 6 3 13 -5 8 -2 8 9 -2 9 -7 17 -9 17 -4 0 5 7 10 15 10 8 0 15 -5 15 -11
0 -6 8 -3 17 7 11 11 21 13 28 7 7 -6 15 -7 18 -3z m480 0 c4 3 7 0 7 -8 0
-11 2 -12 9 -1 6 11 10 9 14 -7 4 -17 2 -19 -13 -11 -26 14 -53 13 -44 -2 5
-7 3 -8 -7 -2 -20 12 -39 14 -39 3 0 -6 -8 -5 -20 1 -15 8 -20 8 -20 -1 0 -8
-4 -8 -13 -1 -16 14 -57 12 -57 -3 0 -7 -3 -7 -8 1 -4 5 -32 10 -62 10 -30 -1
-56 3 -58 8 -1 5 29 10 68 10 38 1 70 -3 70 -8 0 -5 7 -2 17 5 13 11 17 11 20
2 3 -7 9 -13 14 -13 6 0 7 6 3 13 -5 8 -2 8 9 -2 9 -7 17 -9 17 -4 0 5 7 10
15 10 8 0 15 -5 15 -11 0 -6 8 -3 17 7 11 11 21 13 28 7 7 -6 15 -7 18 -3z
m480 0 c4 3 7 0 7 -8 0 -11 2 -12 9 -1 6 11 10 9 14 -7 4 -17 2 -19 -13 -11
-27 14 -53 13 -44 -2 5 -8 0 -7 -11 2 -20 17 -25 17 -34 1 -4 -6 -12 -7 -21
-1 -11 7 -12 10 -2 10 7 0 11 4 8 8 -3 5 1 9 9 9 8 0 15 -5 15 -11 0 -6 8 -3
17 7 11 11 21 13 28 7 7 -6 15 -7 18 -3z m480 0 c4 3 7 0 7 -8 0 -11 2 -12 9
-1 6 11 10 9 14 -7 4 -17 2 -19 -13 -11 -26 14 -53 13 -44 -2 5 -7 3 -8 -7 -2
-20 12 -39 14 -39 3 0 -6 -8 -5 -20 1 -15 8 -20 8 -20 -1 0 -8 -4 -8 -13 -1
-16 14 -57 12 -57 -3 0 -7 -3 -7 -8 1 -4 5 -32 10 -62 10 -30 -1 -56 3 -58 8
-1 5 29 10 68 10 38 1 70 -3 70 -8 0 -5 7 -2 17 5 13 11 17 11 20 2 3 -7 9
-13 14 -13 6 0 7 6 3 13 -5 8 -2 8 9 -2 9 -7 17 -9 17 -4 0 5 7 10 15 10 8 0
15 -5 15 -11 0 -6 8 -3 17 7 11 11 21 13 28 7 7 -6 15 -7 18 -3z m480 0 c4 3
7 0 7 -8 0 -11 2 -12 9 -1 6 11 10 9 14 -7 4 -17 2 -19 -13 -11 -26 14 -53 13
-44 -2 5 -7 3 -8 -7 -2 -20 12 -39 14 -39 3 0 -6 -8 -5 -20 1 -15 8 -20 8 -20
-1 0 -8 -4 -8 -13 -1 -16 14 -57 12 -57 -3 0 -7 -3 -7 -8 1 -4 5 -32 10 -62
10 -30 -1 -56 3 -58 8 -1 5 29 10 68 10 38 1 70 -3 70 -8 0 -5 7 -2 17 5 13
11 17 11 20 2 3 -7 9 -13 14 -13 6 0 7 6 3 13 -5 8 -2 8 9 -2 9 -7 17 -9 17
-4 0 5 7 10 15 10 8 0 15 -5 15 -11 0 -6 8 -3 17 7 11 11 21 13 28 7 7 -6 15
-7 18 -3z m1920 0 c4 3 7 0 7 -8 0 -11 2 -12 9 -1 6 11 10 9 14 -7 4 -17 2
-19 -13 -11 -26 14 -53 13 -44 -2 5 -7 3 -8 -7 -2 -20 12 -39 14 -39 3 0 -6
-8 -6 -19 1 -11 6 -21 6 -23 1 -2 -5 -12 -3 -22 5 -11 7 -16 17 -12 21 4 4 11
1 15 -6 6 -8 14 -10 22 -5 20 12 49 12 49 0 0 -6 8 -3 17 7 11 11 21 13 28 7
7 -6 15 -7 18 -3z m480 0 c4 3 7 0 7 -8 0 -11 2 -12 9 -1 6 11 10 9 14 -7 4
-17 2 -19 -13 -11 -26 14 -53 13 -44 -2 5 -7 3 -8 -7 -2 -20 12 -39 14 -39 3
0 -6 -8 -5 -20 1 -15 8 -20 8 -20 -1 0 -8 -4 -8 -13 -1 -16 14 -57 12 -57 -3
0 -7 -3 -7 -8 1 -4 5 -32 10 -62 10 -30 -1 -56 3 -58 8 -1 5 29 10 68 10 38 1
70 -3 70 -8 0 -5 7 -2 17 5 13 11 17 11 20 2 3 -7 9 -13 14 -13 6 0 7 6 3 13
-5 8 -2 8 9 -2 9 -7 17 -9 17 -4 0 5 7 10 15 10 8 0 15 -5 15 -11 0 -6 8 -3
17 7 11 11 21 13 28 7 7 -6 15 -7 18 -3z m480 0 c4 3 7 0 7 -8 0 -11 2 -12 9
-1 6 11 10 9 14 -7 4 -17 2 -19 -13 -11 -26 14 -53 13 -44 -2 5 -7 3 -8 -7 -2
-20 12 -39 14 -39 3 0 -6 -8 -5 -20 1 -15 8 -20 8 -20 -1 0 -8 -4 -8 -13 -1
-16 14 -57 12 -57 -3 0 -7 -3 -7 -8 1 -4 5 -32 10 -62 10 -30 -1 -56 3 -58 8
-1 5 29 10 68 10 38 1 70 -3 70 -8 0 -5 7 -2 17 5 13 11 17 11 20 2 3 -7 9
-13 14 -13 6 0 7 6 3 13 -5 8 -2 8 9 -2 9 -7 17 -9 17 -4 0 5 7 10 15 10 8 0
15 -5 15 -11 0 -6 8 -3 17 7 11 11 21 13 28 7 7 -6 15 -7 18 -3z m-9973 -12
c0 -5 5 -3 10 5 9 13 10 13 10 0 0 -13 1 -13 10 0 8 12 10 10 10 -8 0 -16 -4
-21 -12 -15 -21 12 -38 12 -38 0 0 -8 -3 -8 -9 1 -4 7 -12 12 -17 11 -5 -1
-16 -1 -24 1 -11 1 -11 3 3 9 27 10 57 8 57 -4z m480 0 c0 -5 5 -3 10 5 9 13
10 13 10 0 0 -13 1 -13 10 0 8 12 10 10 10 -8 0 -16 -4 -21 -12 -15 -21 12
-38 12 -38 0 0 -8 -3 -8 -9 1 -4 7 -12 12 -17 11 -5 -1 -16 -1 -24 1 -11 1
-11 3 3 9 27 10 57 8 57 -4z m518 -3 c2 -8 -3 -10 -14 -5 -12 5 -15 3 -9 -6 6
-10 3 -11 -14 -2 -12 7 -27 11 -34 10 -6 -1 -19 -1 -27 1 -12 1 -11 3 3 8 28
11 90 7 95 -6z m282 3 c0 -5 5 -3 10 5 9 13 10 13 10 0 0 -13 1 -13 10 0 8 12
10 10 10 -8 0 -16 -4 -21 -12 -15 -21 12 -38 12 -38 0 0 -7 -4 -7 -9 2 -5 8
-16 11 -24 8 -9 -3 -17 0 -20 6 -3 8 7 12 29 12 19 0 34 -4 34 -10z m480 0 c0
-5 5 -3 10 5 9 13 10 13 10 0 0 -13 1 -13 10 0 8 12 10 10 10 -8 0 -16 -4 -21
-12 -15 -21 12 -38 12 -38 0 0 -8 -3 -8 -9 1 -4 7 -12 12 -17 11 -5 -1 -16 -1
-24 1 -11 1 -11 3 3 9 27 10 57 8 57 -4z m500 0 c0 -5 4 -4 9 3 6 11 9 9 13
-6 5 -19 3 -19 -19 -9 -19 9 -26 8 -34 -4 -6 -10 -9 -11 -9 -1 0 7 -6 12 -12
11 -7 -1 -20 -1 -28 1 -12 1 -11 3 2 8 27 11 78 9 78 -3z m300 0 c0 -5 5 -3
10 5 9 13 10 13 10 0 0 -13 1 -13 10 0 8 12 10 10 10 -8 0 -16 -4 -21 -12 -15
-21 12 -38 12 -38 0 0 -8 -3 -8 -9 1 -4 7 -12 12 -17 11 -5 -1 -16 -1 -24 1
-11 1 -11 3 3 9 27 10 57 8 57 -4z m480 0 c0 -5 5 -3 10 5 9 13 10 13 10 0 0
-13 1 -13 10 0 8 12 10 10 10 -8 0 -16 -4 -21 -12 -15 -21 12 -38 12 -38 0 0
-8 -3 -8 -9 1 -4 7 -12 12 -17 11 -5 -1 -16 -1 -24 1 -11 1 -11 3 3 9 27 10
57 8 57 -4z m500 0 c0 -5 4 -4 9 3 6 11 9 9 13 -6 5 -19 3 -19 -19 -9 -19 9
-26 8 -34 -4 -6 -10 -9 -11 -9 -1 0 7 -6 12 -12 11 -7 -1 -20 -1 -28 1 -12 1
-11 3 2 8 27 11 78 9 78 -3z m283 2 c5 -13 -4 -14 -48 -7 -5 1 -1 5 10 10 28
12 32 12 38 -3z m497 -2 c0 -5 5 -3 10 5 9 13 10 13 10 0 0 -13 1 -13 10 0 8
12 10 10 10 -8 0 -16 -4 -21 -12 -15 -21 12 -38 12 -38 0 0 -8 -3 -8 -9 1 -4
7 -12 12 -17 11 -5 -1 -16 -1 -24 1 -11 1 -11 3 3 9 27 10 57 8 57 -4z m500 0
c0 -5 4 -4 9 3 6 11 9 9 13 -6 5 -19 3 -19 -19 -9 -19 9 -26 8 -34 -4 -6 -10
-9 -11 -9 -1 0 7 -6 12 -12 11 -7 -1 -20 -1 -28 1 -12 1 -11 3 2 8 27 11 78 9
78 -3z m460 0 c0 -5 5 -3 10 5 9 13 10 13 10 0 0 -13 1 -13 10 0 8 12 10 10
10 -8 0 -16 -4 -21 -12 -15 -21 12 -38 12 -38 0 0 -8 -3 -8 -9 1 -4 7 -12 12
-17 11 -5 -1 -16 -1 -24 1 -11 1 -11 3 3 9 27 10 57 8 57 -4z m500 0 c0 -5 4
-4 9 3 6 11 9 9 13 -6 5 -19 3 -19 -19 -9 -19 9 -26 8 -34 -4 -6 -10 -9 -11
-9 -1 0 7 -6 12 -12 11 -7 -1 -20 -1 -28 1 -12 1 -11 3 2 8 27 11 78 9 78 -3z
m103 6 c4 -1 7 -5 7 -9 0 -5 -12 -8 -27 -6 -16 1 -34 2 -40 3 -7 1 -13 5 -13
9 0 6 38 8 73 3z m47 -6 c0 -2 -7 -5 -15 -9 -9 -3 -15 0 -15 9 0 9 6 12 15 9
8 -4 15 -7 15 -9z m310 0 c0 -5 5 -3 10 5 9 13 10 13 10 0 0 -13 1 -13 10 0 8
12 10 10 10 -8 0 -16 -4 -21 -12 -15 -21 12 -38 12 -38 0 0 -8 -3 -8 -9 1 -4
7 -12 12 -17 11 -5 -1 -16 -1 -24 1 -11 1 -11 3 3 9 27 10 57 8 57 -4z m480 0
c0 -5 5 -3 10 5 9 13 10 13 10 0 0 -13 1 -13 10 0 8 12 10 10 10 -8 0 -16 -4
-21 -12 -15 -21 12 -38 12 -38 0 0 -8 -3 -8 -9 1 -4 7 -12 12 -17 11 -5 -1
-16 -1 -24 1 -11 1 -11 3 3 9 27 10 57 8 57 -4z m480 0 c0 -5 5 -3 10 5 9 13
10 13 10 0 0 -13 1 -13 10 0 8 12 10 10 10 -8 0 -16 -4 -21 -12 -15 -21 12
-38 12 -38 0 0 -8 -3 -8 -9 1 -4 7 -12 12 -17 11 -5 -1 -16 -1 -24 1 -11 1
-11 3 3 9 27 10 57 8 57 -4z m200 1 c0 -5 7 -2 17 5 13 11 17 11 20 2 3 -7 9
-13 14 -13 6 0 7 6 3 13 -5 8 -2 8 9 -2 9 -7 17 -9 17 -4 0 5 14 9 30 8 17 0
30 -4 30 -9 0 -5 8 -2 17 5 11 10 14 10 9 2 -8 -14 6 -18 18 -6 10 10 130 10
137 -1 4 -5 13 -5 20 0 18 11 119 11 119 0 0 -5 8 -2 17 5 11 10 14 10 9 2 -8
-14 6 -18 18 -6 10 10 130 10 137 -1 4 -5 13 -5 20 0 18 11 119 11 119 0 0 -5
8 -2 17 5 11 10 14 10 9 2 -8 -14 6 -18 18 -6 10 10 130 10 137 -1 4 -5 13 -5
20 0 18 11 119 11 119 0 0 -5 8 -2 17 5 11 10 14 10 9 2 -4 -7 -3 -13 3 -13 5
0 12 3 15 8 7 11 89 7 94 -6 2 -7 -10 -9 -33 -6 -25 3 -34 1 -29 -7 5 -8 1 -8
-13 0 -14 7 -23 7 -31 -1 -9 -9 -12 -9 -12 -1 0 13 -18 12 -39 -1 -9 -6 -12
-5 -8 1 5 7 -6 11 -28 11 -21 0 -32 -4 -29 -10 4 -6 -2 -5 -14 1 -15 8 -23 8
-28 0 -4 -8 -9 -7 -15 2 -7 12 -12 12 -30 1 -11 -8 -18 -9 -15 -4 3 6 -9 10
-29 10 -21 0 -32 -4 -29 -10 4 -6 -1 -6 -13 1 -14 7 -23 7 -31 -1 -9 -9 -12
-9 -12 -1 0 13 -18 12 -39 -1 -9 -6 -12 -5 -8 1 5 7 -6 11 -28 11 -21 0 -32
-4 -29 -10 4 -6 -2 -5 -14 1 -15 8 -23 8 -28 0 -4 -8 -9 -7 -15 2 -7 12 -12
12 -30 1 -11 -8 -18 -9 -15 -4 3 6 -9 10 -29 10 -21 0 -32 -4 -29 -10 4 -6 -1
-6 -13 1 -14 7 -23 7 -31 -1 -9 -9 -12 -9 -12 -1 0 13 -18 12 -39 -1 -9 -6
-12 -5 -8 1 5 7 -6 11 -28 11 -21 0 -32 -4 -29 -10 4 -6 -2 -5 -14 1 -15 8
-23 8 -28 0 -4 -8 -9 -7 -15 2 -7 12 -12 12 -30 1 -11 -8 -18 -9 -15 -4 3 6
-9 10 -29 10 -21 0 -32 -4 -29 -10 4 -6 -1 -6 -13 1 -14 7 -23 7 -31 -1 -9 -9
-12 -9 -12 -1 0 13 -18 12 -39 -1 -9 -6 -12 -5 -7 2 4 8 -3 11 -24 9 -16 -1
-30 -6 -30 -11 0 -5 -6 -3 -14 3 -16 14 -47 11 -58 -4 -5 -6 -8 -6 -8 1 0 6
-22 10 -57 9 -60 -2 -76 1 -69 13 6 10 146 8 146 -2z m1720 -1 c0 -5 5 -3 10
5 9 13 10 13 10 0 0 -13 1 -13 10 0 8 12 10 10 10 -8 0 -16 -4 -21 -12 -15
-21 12 -38 12 -38 0 0 -8 -3 -8 -9 1 -4 7 -12 12 -17 11 -5 -1 -16 -1 -24 1
-11 1 -11 3 3 9 27 10 57 8 57 -4z m480 0 c0 -5 5 -3 10 5 9 13 10 13 10 0 0
-13 1 -13 10 0 8 12 10 10 10 -8 0 -16 -4 -21 -12 -15 -21 12 -38 12 -38 0 0
-8 -3 -8 -9 1 -4 7 -12 12 -17 11 -5 -1 -16 -1 -24 1 -11 1 -11 3 3 9 27 10
57 8 57 -4z m-9666 -781 c3 -8 2 -12 -4 -9 -6 3 -10 10 -10 16 0 14 7 11 14
-7z m160 0 c3 -8 2 -12 -4 -9 -6 3 -10 10 -10 16 0 14 7 11 14 -7z m160 0 c3
-8 2 -12 -4 -9 -6 3 -10 10 -10 16 0 14 7 11 14 -7z m160 0 c3 -8 2 -12 -4 -9
-6 3 -10 10 -10 16 0 14 7 11 14 -7z m118 -6 c-7 -7 -12 -8 -12 -2 0 14 12 26
19 19 2 -3 -1 -11 -7 -17z m64 13 c-6 -9 -46 -22 -46 -15 0 3 10 9 23 14 29
11 29 11 23 1z m142 -16 c-3 -3 -9 2 -12 12 -6 14 -5 15 5 6 7 -7 10 -15 7
-18z m79 8 c0 -9 -4 -10 -14 -2 -7 6 -13 12 -13 14 0 1 6 2 13 2 8 0 14 -6 14
-14z m161 -8 c-3 -3 -9 2 -12 12 -6 14 -5 15 5 6 7 -7 10 -15 7 -18z m79 8 c0
-9 -4 -10 -14 -2 -7 6 -13 12 -13 14 0 1 6 2 13 2 8 0 14 -6 14 -14z m161 -8
c-3 -3 -9 2 -12 12 -6 14 -5 15 5 6 7 -7 10 -15 7 -18z m72 10 c5 3 11 1 14
-4 4 -5 -2 -8 -11 -6 -10 2 -22 4 -26 4 -5 1 -5 6 -1 13 6 9 9 9 12 0 2 -7 8
-10 12 -7z m333 1 c4 -10 0 -12 -15 -8 -15 4 -17 7 -6 13 17 11 15 11 21 -5z
m75 -11 c-3 -3 -9 2 -12 12 -6 14 -5 15 5 6 7 -7 10 -15 7 -18z m156 9 c3 -8
2 -12 -4 -9 -6 3 -10 10 -10 16 0 14 7 11 14 -7z m160 0 c3 -8 2 -12 -4 -9 -6
3 -10 10 -10 16 0 14 7 11 14 -7z m160 0 c3 -8 2 -12 -4 -9 -6 3 -10 10 -10
16 0 14 7 11 14 -7z m160 0 c3 -8 2 -12 -4 -9 -6 3 -10 10 -10 16 0 14 7 11
14 -7z m160 0 c3 -8 2 -12 -4 -9 -6 3 -10 10 -10 16 0 14 7 11 14 -7z m160 0
c3 -8 2 -12 -4 -9 -6 3 -10 10 -10 16 0 14 7 11 14 -7z m160 0 c3 -8 2 -12 -4
-9 -6 3 -10 10 -10 16 0 14 7 11 14 -7z m160 0 c3 -8 2 -12 -4 -9 -6 3 -10 10
-10 16 0 14 7 11 14 -7z m118 -6 c-7 -7 -12 -8 -12 -2 0 6 3 14 7 17 3 4 9 5
12 2 2 -3 -1 -11 -7 -17z m64 13 c-6 -9 -46 -22 -46 -15 0 3 10 9 23 14 29 11
29 11 23 1z m142 -16 c-3 -3 -9 2 -12 12 -6 14 -5 15 5 6 7 -7 10 -15 7 -18z
m79 8 c0 -9 -4 -10 -14 -2 -7 6 -13 12 -13 14 0 1 6 2 13 2 8 0 14 -6 14 -14z
m161 -8 c-3 -3 -9 2 -12 12 -6 14 -5 15 5 6 7 -7 10 -15 7 -18z m79 8 c0 -9
-4 -10 -14 -2 -7 6 -13 12 -13 14 0 1 6 2 13 2 8 0 14 -6 14 -14z m161 -8 c-3
-3 -9 2 -12 12 -6 14 -5 15 5 6 7 -7 10 -15 7 -18z m1116 9 c3 -8 2 -12 -4 -9
-6 3 -10 10 -10 16 0 14 7 11 14 -7z m140 1 c3 -8 1 -15 -4 -15 -6 0 -10 7
-10 15 0 8 2 15 4 15 2 0 6 -7 10 -15z m51 5 c-3 -5 -12 -10 -18 -10 -7 0 -6
4 3 10 19 12 23 12 15 0z m1031 1 c-6 -9 -46 -22 -46 -15 0 3 10 9 23 14 29
11 29 11 23 1z m302 -16 c-3 -3 -9 2 -12 12 -6 14 -5 15 5 6 7 -7 10 -15 7
-18z m79 8 c0 -9 -4 -10 -14 -2 -7 6 -13 12 -13 14 0 1 6 2 13 2 8 0 14 -6 14
-14z m161 -8 c-3 -3 -9 2 -12 12 -6 14 -5 15 5 6 7 -7 10 -15 7 -18z m79 8 c0
-9 -4 -10 -14 -2 -7 6 -13 12 -13 14 0 1 6 2 13 2 8 0 14 -6 14 -14z m123 7
c0 -5 -5 -10 -11 -10 -5 0 -7 5 -4 10 3 6 8 10 11 10 2 0 4 -4 4 -10z m56 1
c-6 -9 -46 -22 -46 -15 0 3 10 9 23 14 29 11 29 11 23 1z m142 -16 c-3 -3 -9
2 -12 12 -6 14 -5 15 5 6 7 -7 10 -15 7 -18z m79 8 c0 -9 -4 -10 -14 -2 -7 6
-13 12 -13 14 0 1 6 2 13 2 8 0 14 -6 14 -14z m161 -8 c-3 -3 -9 2 -12 12 -6
14 -5 15 5 6 7 -7 10 -15 7 -18z m79 8 c0 -9 -4 -10 -14 -2 -7 6 -13 12 -13
14 0 1 6 2 13 2 8 0 14 -6 14 -14z m195 -5 c-7 -7 -12 -8 -12 -2 0 14 12 26
19 19 2 -3 -1 -11 -7 -17z m64 13 c-6 -9 -46 -22 -46 -15 0 3 10 9 23 14 29
11 29 11 23 1z m142 -16 c-3 -3 -9 2 -12 12 -6 14 -5 15 5 6 7 -7 10 -15 7
-18z m79 8 c0 -9 -4 -10 -14 -2 -7 6 -13 12 -13 14 0 1 6 2 13 2 8 0 14 -6 14
-14z m161 -8 c-3 -3 -9 2 -12 12 -6 14 -5 15 5 6 7 -7 10 -15 7 -18z m79 8 c0
-9 -4 -10 -14 -2 -7 6 -13 12 -13 14 0 1 6 2 13 2 8 0 14 -6 14 -14z m180 2
c4 -4 3 -5 -4 -2 -6 4 -13 2 -15 -5 -3 -8 -6 -6 -10 4 -7 17 15 19 29 3z m337
-1 c3 -8 2 -12 -4 -9 -6 3 -10 10 -10 16 0 14 7 11 14 -7z m124 -9 c-3 -3 -9
2 -12 12 -6 14 -5 15 5 6 7 -7 10 -15 7 -18z m156 9 c3 -8 2 -12 -4 -9 -6 3
-10 10 -10 16 0 14 7 11 14 -7z m160 0 c3 -8 2 -12 -4 -9 -6 3 -10 10 -10 16
0 14 7 11 14 -7z m160 0 c3 -8 2 -12 -4 -9 -6 3 -10 10 -10 16 0 14 7 11 14
-7z m160 0 c3 -8 2 -12 -4 -9 -6 3 -10 10 -10 16 0 14 7 11 14 -7z m118 -6
c-7 -7 -12 -8 -12 -2 0 14 12 26 19 19 2 -3 -1 -11 -7 -17z m64 13 c-6 -9 -46
-22 -46 -15 0 3 10 9 23 14 29 11 29 11 23 1z m142 -16 c-3 -3 -9 2 -12 12 -6
14 -5 15 5 6 7 -7 10 -15 7 -18z m79 8 c0 -9 -4 -10 -14 -2 -7 6 -13 12 -13
14 0 1 6 2 13 2 8 0 14 -6 14 -14z m161 -8 c-3 -3 -9 2 -12 12 -6 14 -5 15 5
6 7 -7 10 -15 7 -18z m79 8 c0 -9 -4 -10 -14 -2 -7 6 -13 12 -13 14 0 1 6 2
13 2 8 0 14 -6 14 -14z m-10107 3 c0 -8 -49 -13 -60 -6 -6 4 5 7 25 8 19 1 35
0 35 -2z m73 -3 c-7 -2 -19 -2 -25 0 -7 3 -2 5 12 5 14 0 19 -2 13 -5z m87 3
c0 -8 -49 -13 -60 -6 -6 4 5 7 25 8 19 1 35 0 35 -2z m73 -3 c-7 -2 -19 -2
-25 0 -7 3 -2 5 12 5 14 0 19 -2 13 -5z m87 3 c0 -8 -49 -13 -60 -6 -6 4 5 7
25 8 19 1 35 0 35 -2z m73 -3 c-7 -2 -19 -2 -25 0 -7 3 -2 5 12 5 14 0 19 -2
13 -5z m87 3 c0 -8 -49 -13 -60 -6 -6 4 5 7 25 8 19 1 35 0 35 -2z m73 -3 c-7
-2 -19 -2 -25 0 -7 3 -2 5 12 5 14 0 19 -2 13 -5z m201 -2 c4 -5 -3 -7 -14 -4
-23 6 -26 13 -6 13 8 0 17 -4 20 -9z m36 -1 c0 -5 -2 -10 -4 -10 -3 0 -8 5
-11 10 -3 6 -1 10 4 10 6 0 11 -4 11 -10z m204 1 c4 -5 -3 -7 -14 -4 -23 6
-26 13 -6 13 8 0 17 -4 20 -9z m36 -1 c0 -5 -2 -10 -4 -10 -3 0 -8 5 -11 10
-3 6 -1 10 4 10 6 0 11 -4 11 -10z m204 1 c4 -5 -3 -7 -14 -4 -23 6 -26 13 -6
13 8 0 17 -4 20 -9z m36 -1 c0 -5 -2 -10 -4 -10 -3 0 -8 5 -11 10 -3 6 -1 10
4 10 6 0 11 -4 11 -10z m480 0 c0 -5 -2 -10 -4 -10 -3 0 -8 5 -11 10 -3 6 -1
10 4 10 6 0 11 -4 11 -10z m170 6 c0 -8 -49 -13 -60 -6 -6 4 5 7 25 8 19 1 35
0 35 -2z m73 -3 c-7 -2 -19 -2 -25 0 -7 3 -2 5 12 5 14 0 19 -2 13 -5z m87 3
c0 -8 -49 -13 -60 -6 -6 4 5 7 25 8 19 1 35 0 35 -2z m73 -3 c-7 -2 -19 -2
-25 0 -7 3 -2 5 12 5 14 0 19 -2 13 -5z m87 3 c0 -8 -49 -13 -60 -6 -6 4 5 7
25 8 19 1 35 0 35 -2z m73 -3 c-7 -2 -19 -2 -25 0 -7 3 -2 5 12 5 14 0 19 -2
13 -5z m87 3 c0 -8 -49 -13 -60 -6 -6 4 5 7 25 8 19 1 35 0 35 -2z m73 -3 c-7
-2 -19 -2 -25 0 -7 3 -2 5 12 5 14 0 19 -2 13 -5z m87 3 c0 -8 -49 -13 -60 -6
-6 4 5 7 25 8 19 1 35 0 35 -2z m73 -3 c-7 -2 -19 -2 -25 0 -7 3 -2 5 12 5 14
0 19 -2 13 -5z m87 3 c0 -8 -49 -13 -60 -6 -6 4 5 7 25 8 19 1 35 0 35 -2z
m73 -3 c-7 -2 -19 -2 -25 0 -7 3 -2 5 12 5 14 0 19 -2 13 -5z m87 3 c0 -8 -49
-13 -60 -6 -6 4 5 7 25 8 19 1 35 0 35 -2z m73 -3 c-7 -2 -19 -2 -25 0 -7 3
-2 5 12 5 14 0 19 -2 13 -5z m87 3 c0 -8 -49 -13 -60 -6 -6 4 5 7 25 8 19 1
35 0 35 -2z m73 -3 c-7 -2 -19 -2 -25 0 -7 3 -2 5 12 5 14 0 19 -2 13 -5z
m201 -2 c4 -5 -3 -7 -14 -4 -23 6 -26 13 -6 13 8 0 17 -4 20 -9z m36 -1 c0 -5
-2 -10 -4 -10 -3 0 -8 5 -11 10 -3 6 -1 10 4 10 6 0 11 -4 11 -10z m204 1 c4
-5 -3 -7 -14 -4 -23 6 -26 13 -6 13 8 0 17 -4 20 -9z m36 -1 c0 -5 -2 -10 -4
-10 -3 0 -8 5 -11 10 -3 6 -1 10 4 10 6 0 11 -4 11 -10z m204 1 c4 -5 -3 -7
-14 -4 -23 6 -26 13 -6 13 8 0 17 -4 20 -9z m36 -1 c0 -5 -2 -10 -4 -10 -3 0
-8 5 -11 10 -3 6 -1 10 4 10 6 0 11 -4 11 -10z m1130 6 c0 -7 -50 -13 -55 -7
-2 4 10 8 26 9 16 1 29 1 29 -2z m109 -6 c-6 -5 -18 -6 -26 -3 -19 8 -16 11
13 11 17 0 22 -3 13 -8z m1205 1 c4 -5 -3 -7 -14 -4 -23 6 -26 13 -6 13 8 0
17 -4 20 -9z m75 -1 c-6 -5 -18 -6 -26 -3 -19 8 -16 11 13 11 17 0 22 -3 13
-8z m85 1 c4 -5 -3 -7 -14 -4 -23 6 -26 13 -6 13 8 0 17 -4 20 -9z m36 -1 c0
-5 -2 -10 -4 -10 -3 0 -8 5 -11 10 -3 6 -1 10 4 10 6 0 11 -4 11 -10z m204 1
c4 -5 -3 -7 -14 -4 -23 6 -26 13 -6 13 8 0 17 -4 20 -9z m36 -1 c0 -5 -2 -10
-4 -10 -3 0 -8 5 -11 10 -3 6 -1 10 4 10 6 0 11 -4 11 -10z m204 1 c4 -5 -3
-7 -14 -4 -23 6 -26 13 -6 13 8 0 17 -4 20 -9z m160 0 c4 -5 -3 -7 -14 -4 -23
6 -26 13 -6 13 8 0 17 -4 20 -9z m36 -1 c0 -5 -2 -10 -4 -10 -3 0 -8 5 -11 10
-3 6 -1 10 4 10 6 0 11 -4 11 -10z m204 1 c4 -5 -3 -7 -14 -4 -23 6 -26 13 -6
13 8 0 17 -4 20 -9z m36 -1 c0 -5 -2 -10 -4 -10 -3 0 -8 5 -11 10 -3 6 -1 10
4 10 6 0 11 -4 11 -10z m204 1 c4 -5 -3 -7 -14 -4 -23 6 -26 13 -6 13 8 0 17
-4 20 -9z m43 3 c-3 -3 -12 -4 -19 -1 -8 3 -5 6 6 6 11 1 17 -2 13 -5z m197
-3 c4 -5 -3 -7 -14 -4 -23 6 -26 13 -6 13 8 0 17 -4 20 -9z m36 -1 c0 -5 -2
-10 -4 -10 -3 0 -8 5 -11 10 -3 6 -1 10 4 10 6 0 11 -4 11 -10z m204 1 c4 -5
-3 -7 -14 -4 -23 6 -26 13 -6 13 8 0 17 -4 20 -9z m36 -1 c0 -5 -2 -10 -4 -10
-3 0 -8 5 -11 10 -3 6 -1 10 4 10 6 0 11 -4 11 -10z m204 1 c4 -5 -3 -7 -14
-4 -23 6 -26 13 -6 13 8 0 17 -4 20 -9z m36 -1 c0 -5 -2 -10 -4 -10 -3 0 -8 5
-11 10 -3 6 -1 10 4 10 6 0 11 -4 11 -10z m359 0 c-6 -5 -18 -6 -26 -3 -19 8
-16 11 13 11 17 0 22 -3 13 -8z m85 1 c4 -5 -3 -7 -14 -4 -23 6 -26 13 -6 13
8 0 17 -4 20 -9z m36 -1 c0 -5 -2 -10 -4 -10 -3 0 -8 5 -11 10 -3 6 -1 10 4
10 6 0 11 -4 11 -10z m170 6 c0 -8 -49 -13 -60 -6 -6 4 5 7 25 8 19 1 35 0 35
-2z m73 -3 c-7 -2 -19 -2 -25 0 -7 3 -2 5 12 5 14 0 19 -2 13 -5z m87 3 c0 -8
-49 -13 -60 -6 -6 4 5 7 25 8 19 1 35 0 35 -2z m73 -3 c-7 -2 -19 -2 -25 0 -7
3 -2 5 12 5 14 0 19 -2 13 -5z m87 3 c0 -8 -49 -13 -60 -6 -6 4 5 7 25 8 19 1
35 0 35 -2z m73 -3 c-7 -2 -19 -2 -25 0 -7 3 -2 5 12 5 14 0 19 -2 13 -5z m87
3 c0 -8 -49 -13 -60 -6 -6 4 5 7 25 8 19 1 35 0 35 -2z m73 -3 c-7 -2 -19 -2
-25 0 -7 3 -2 5 12 5 14 0 19 -2 13 -5z m201 -2 c4 -5 -3 -7 -14 -4 -23 6 -26
13 -6 13 8 0 17 -4 20 -9z m36 -1 c0 -5 -2 -10 -4 -10 -3 0 -8 5 -11 10 -3 6
-1 10 4 10 6 0 11 -4 11 -10z m204 1 c4 -5 -3 -7 -14 -4 -23 6 -26 13 -6 13 8
0 17 -4 20 -9z m36 -1 c0 -5 -2 -10 -4 -10 -3 0 -8 5 -11 10 -3 6 -1 10 4 10
6 0 11 -4 11 -10z m-2220 -779 c9 -1 11 -4 4 -11 -12 -12 -5467 -16 -5497 -5
-9 4 -17 10 -17 14 0 5 5452 7 5510 2z m-1125 -790 c6 -1 -1 -7 -15 -12 -28
-12 -3169 -15 -3214 -3 -14 3 -26 9 -26 13 0 5 3226 7 3255 2z"/>
<path d="M0 385 l0 -385 5120 0 5120 0 0 385 0 384 -5120 0 -5120 0 0 -384z"/>
</g>
</svg>
